<?xml version="1.0" standalone="no"?>
<!DOCTYPE svg PUBLIC "-//W3C//DTD SVG 20010904//EN"
 "http://www.w3.org/TR/2001/REC-SVG-20010904/DTD/svg10.dtd">
<svg version="1.0" xmlns="http://www.w3.org/2000/svg"
 width="260.000000pt" height="260.000000pt" viewBox="0 0 260.000000 260.000000"
 preserveAspectRatio="xMidYMid meet">
<metadata>
Created by potrace 1.11, written by Peter Selinger 2001-2013
</metadata>
<g transform="translate(0.000000,260.000000) scale(0.100000,-0.100000)"
fill="#000000" stroke="none">
<path d="M2304 1967 c-21 -5 -482 -10 -1024 -12 -542 -2 -992 -4 -1001 -4 -14
-1 -16 -16 -16 -111 0 -60 -2 -112 -5 -115 -3 -3 -29 -8 -57 -12 l-52 -6 6
-51 c3 -28 8 -67 10 -86 3 -19 8 -57 10 -85 10 -91 21 -178 30 -245 1 -8 6
-42 10 -75 4 -33 8 -69 10 -80 1 -11 3 -32 4 -47 1 -18 7 -28 17 -28 8 0 12
-4 9 -10 -3 -5 0 -10 7 -10 9 -1 7 -5 -4 -14 -10 -7 -16 -22 -13 -34 2 -11 6
-47 10 -79 11 -108 8 -104 84 -98 64 4 115 10 176 21 32 6 286 14 395 13 36 0
76 1 90 1 14 1 31 2 38 1 6 0 74 0 150 0 168 0 203 -1 212 -6 3 -2 12 0 20 5
8 5 21 5 30 0 9 -5 22 -5 29 -1 7 5 30 5 51 1 21 -4 44 -4 51 1 7 4 20 4 29
-1 9 -5 22 -5 29 -1 7 5 30 5 51 1 21 -4 44 -4 51 1 7 4 20 4 29 -1 9 -5 22
-5 29 -1 7 5 30 5 51 1 21 -4 44 -3 52 1 8 4 19 4 26 0 7 -4 34 -5 60 -2 26 4
66 4 90 0 24 -3 45 -2 48 2 2 4 17 4 32 1 15 -4 59 -5 98 -2 l70 5 1 51 c0 28
3 56 7 62 4 7 4 12 -1 12 -4 0 -8 17 -7 37 1 35 3 38 34 41 l32 3 -6 62 c-16
151 -17 158 -37 152 -15 -5 -19 -1 -19 15 0 11 7 23 16 27 12 4 14 17 10 67
-3 33 -8 70 -10 81 -16 80 -25 299 -13 311 4 4 52 11 91 13 16 1 17 7 12 44
-4 24 -9 63 -11 88 -12 106 -13 108 -49 106 -18 -1 -50 -6 -72 -10z"/>
<path d="M1355 771 c-3 -5 -2 -12 3 -15 5 -3 9 1 9 9 0 17 -3 19 -12 6z"/>
<path d="M1515 771 c-3 -5 -2 -12 3 -15 5 -3 9 1 9 9 0 17 -3 19 -12 6z"/>
<path d="M1675 771 c-3 -5 -2 -12 3 -15 5 -3 9 1 9 9 0 17 -3 19 -12 6z"/>
<path d="M1835 771 c-3 -5 -2 -12 3 -15 5 -3 9 1 9 9 0 17 -3 19 -12 6z"/>
</g>
</svg>
