<svg xmlns="http://www.w3.org/2000/svg" width="17" height="17" viewBox="0 0 17 17">
  <path fill="#000" d="M13.4852814,-3.34314575 L17.7279221,-7.58578644 C18.5089706,-8.36683502 19.7753006,-8.36683502 20.5563492,-7.58578644 C21.3373978,-6.80473785 21.3373978,-5.5384079 20.5563492,-4.75735931 L16.3137085,-0.514718626 L20.5563492,3.72792206 C21.3373978,4.50897064 21.3373978,5.7753006 20.5563492,6.55634919 C19.7753006,7.33739777 18.5089706,7.33739777 17.7279221,6.55634919 L13.4852814,2.3137085 L9.24264069,6.55634919 C8.4615921,7.33739777 7.19526215,7.33739777 6.41421356,6.55634919 C5.63316498,5.7753006 5.63316498,4.50897064 6.41421356,3.72792206 L10.6568542,-0.514718626 L6.41421356,-4.75735931 C5.63316498,-5.5384079 5.63316498,-6.80473785 6.41421356,-7.58578644 C7.19526215,-8.36683502 8.4615921,-8.36683502 9.24264069,-7.58578644 L13.4852814,-3.34314575 Z" transform="translate(-5 9)"/>
</svg>
