<?xml version="1.0" encoding="UTF-8"?>
<svg width="16px" height="22px" viewBox="0 0 16 22" version="1.1" xmlns="http://www.w3.org/2000/svg" xmlns:xlink="http://www.w3.org/1999/xlink">
    <!-- Generator: Sketch 51.2 (57519) - http://www.bohemiancoding.com/sketch -->
    <title>Fill 1</title>
    <desc>Created with Sketch.</desc>
    <defs></defs>
    <g id="Design" stroke="none" stroke-width="1" fill="none" fill-rule="evenodd">
        <g id="About" transform="translate(-833.000000, -2553.000000)" fill="#000">
            <g id="Group-3" transform="translate(833.000000, 2393.000000)">
                <path d="M8.00005,172.571554 C5.35003344,172.571554 3.20002,170.459926 3.20002,167.857222 C3.20002,165.253731 5.35003344,163.142889 8.00005,163.142889 C10.6516666,163.142889 12.80008,165.253731 12.80008,167.857222 C12.80008,170.459926 10.6516666,172.571554 8.00005,172.571554 M8.00005,160 C3.58122238,160 0,163.791895 0,167.857222 C0,170.021002 1.10000688,171.033896 3.20002,174.72296 C5.04533153,177.962591 6.58594116,180.904531 6.58594116,180.904531 C7.35004594,182.363813 8.60315377,182.365483 9.36885856,180.907575 C9.36885856,180.907575 10.9203683,177.961117 12.79998,174.72296 C14.9405934,171.033896 16,170.022475 16,167.857222 C16.0001,163.791895 12.4188776,160 8.00005,160" id="Fill-1"></path>
            </g>
        </g>
    </g>
</svg>